<svg width="8" height="14" viewBox="0 0 8 14" fill="none" xmlns="http://www.w3.org/2000/svg">
<path d="M2.41366 6.6686L7.36366 1.7186C7.45917 1.62636 7.53535 1.51601 7.58776 1.39401C7.64017 1.272 7.66775 1.14078 7.66891 1.008C7.67006 0.875224 7.64476 0.743545 7.59448 0.620648C7.5442 0.497752 7.46994 0.3861 7.37605 0.292207C7.28216 0.198314 7.17051 0.124061 7.04761 0.0737801C6.92471 0.0234995 6.79304 -0.00180244 6.66026 -0.000648499C6.52748 0.000505447 6.39626 0.0280914 6.27425 0.0805006C6.15225 0.13291 6.0419 0.209091 5.94966 0.304602L0.292657 5.9616C0.105186 6.14913 -0.000129223 6.40344 -0.000129223 6.6686C-0.000129223 6.93377 0.105186 7.18808 0.292657 7.3756L5.94966 13.0326C6.0419 13.1281 6.15225 13.2043 6.27425 13.2567C6.39626 13.3091 6.52748 13.3367 6.66026 13.3379C6.79304 13.339 6.92471 13.3137 7.04761 13.2634C7.17051 13.2131 7.28216 13.1389 7.37605 13.045C7.46994 12.9511 7.5442 12.8395 7.59448 12.7166C7.64476 12.5937 7.67006 12.462 7.66891 12.3292C7.66775 12.1964 7.64017 12.0652 7.58776 11.9432C7.53535 11.8212 7.45917 11.7108 7.36366 11.6186L2.41366 6.6686Z" fill="#21272A"/>
</svg>
