<svg width="14" height="8" viewBox="0 0 14 8" fill="none" xmlns="http://www.w3.org/2000/svg">
<path d="M6.92934 5.31388L1.97934 0.363882C1.8871 0.268372 1.77675 0.19219 1.65475 0.139781C1.53274 0.0873716 1.40152 0.0597853 1.26875 0.0586315C1.13597 0.0574777 1.00429 0.0827794 0.881391 0.13306C0.758494 0.183341 0.646842 0.257594 0.552949 0.351487C0.459056 0.44538 0.384803 0.557032 0.334522 0.679928C0.284241 0.802824 0.25894 0.934504 0.260094 1.06728C0.261248 1.20006 0.288834 1.33128 0.341243 1.45329C0.393652 1.57529 0.469834 1.68564 0.565344 1.77788L6.22234 7.43488C6.40987 7.62235 6.66418 7.72767 6.92934 7.72767C7.19451 7.72767 7.44882 7.62235 7.63634 7.43488L13.2933 1.77788C13.3889 1.68564 13.465 1.57529 13.5174 1.45329C13.5699 1.33128 13.5974 1.20006 13.5986 1.06728C13.5997 0.934504 13.5744 0.802824 13.5242 0.679928C13.4739 0.557032 13.3996 0.44538 13.3057 0.351487C13.2118 0.257594 13.1002 0.183341 12.9773 0.13306C12.8544 0.0827794 12.7227 0.0574777 12.5899 0.0586315C12.4572 0.0597853 12.3259 0.0873716 12.2039 0.139781C12.0819 0.19219 11.9716 0.268372 11.8793 0.363882L6.92934 5.31388Z" fill="#BEBEBE"/>
</svg>
