<svg width="18" height="18" viewBox="0 0 18 18" fill="none" xmlns="http://www.w3.org/2000/svg">
<path fill-rule="evenodd" clip-rule="evenodd" d="M10.9533 1.3255L11.0434 1.3775C11.8215 1.82672 12.4704 2.2013 12.9455 2.56795C13.447 2.95494 13.845 3.39914 14.0117 4.02132C14.1784 4.6435 14.0558 5.2272 13.815 5.81309C13.5869 6.36817 13.2123 7.017 12.763 7.79508L8.88747 14.5078C8.59053 15.0231 8.35575 15.4305 7.99839 15.7376C7.64103 16.0446 7.20288 16.2154 6.64875 16.4314L6.49901 16.4898C5.47079 16.8916 4.62324 17.2227 3.92918 17.3849C3.20329 17.5545 2.50243 17.5756 1.84916 17.1984C1.19588 16.8212 0.863728 16.2037 0.647656 15.4903C0.441057 14.8081 0.304077 13.9086 0.137892 12.8172L0.113634 12.6583C0.0236046 12.0704 -0.0475827 11.6056 0.039652 11.1426C0.0505565 11.0847 0.063777 11.0277 0.0791457 10.9713C0.186727 10.5762 0.399571 10.2082 0.660135 9.75775L4.53575 3.04509C4.98497 2.26697 5.35955 1.61811 5.7262 1.143C6.11319 0.641518 6.55739 0.24349 7.17957 0.0767765C7.80175 -0.089937 8.38545 0.0326677 8.97134 0.273468C9.52642 0.501606 10.1753 0.876237 10.9533 1.3255ZM5.43379 4.48964L11.063 7.73964L7.63952 13.6692C7.26656 14.3152 7.15992 14.4804 7.02083 14.5999C6.88174 14.7194 6.7024 14.7999 6.00763 15.0714C4.91115 15.4998 4.16439 15.7895 3.58791 15.9242C3.03104 16.0543 2.77835 16.0028 2.59915 15.8994C2.41996 15.7959 2.24902 15.6028 2.08326 15.0555C1.91166 14.4889 1.78923 13.6973 1.61199 12.5336C1.49968 11.7961 1.47976 11.6005 1.51372 11.4203C1.54767 11.2401 1.63739 11.0652 2.01035 10.4192L5.43379 4.48964ZM12.4276 5.24287C12.2951 5.56531 12.0924 5.94444 11.8114 6.4397L6.18536 3.19151C6.47374 2.70048 6.70074 2.33539 6.91372 2.05941C7.19818 1.69079 7.38978 1.57336 7.5678 1.52567C7.74581 1.47797 7.97046 1.48386 8.40112 1.66086C8.85192 1.84613 9.41352 2.16853 10.2484 2.65054C11.0832 3.13255 11.6432 3.45771 12.0291 3.75547C12.3977 4.03993 12.5151 4.23153 12.5628 4.40955C12.6105 4.58756 12.6046 4.81221 12.4276 5.24287Z" fill="#BEBEBE"/>
<path d="M9.59033 16.8538C9.59033 16.4396 9.92612 16.1038 10.3403 16.1038H16.3403C16.7545 16.1038 17.0903 16.4396 17.0903 16.8538C17.0903 17.268 16.7545 17.6038 16.3403 17.6038H10.3403C9.92612 17.6038 9.59033 17.268 9.59033 16.8538Z" fill="#BEBEBE"/>
</svg>
