<?xml version="1.0" encoding="UTF-8" standalone="no"?>
<!-- Created with Inkscape (http://www.inkscape.org/) -->

<svg
   width="72.898224mm"
   height="18.626942mm"
   viewBox="0 0 72.898224 18.626942"
   version="1.1"
   id="svg5"
   xml:space="preserve"
   xmlns="http://www.w3.org/2000/svg"
   xmlns:svg="http://www.w3.org/2000/svg"><defs
     id="defs2" /><g
     id="layer1"
     transform="translate(-60.28189,-94.224526)"><g
       id="g51"
       transform="matrix(0.35277778,0,0,0.35277778,-12.337966,-17.260142)"><path
         fill-rule="nonzero"
         fill="#231f20"
         fill-opacity="1"
         d="m 262.10937,345.05078 h 16.96875 v 4.78125 h -9.03125 v 3.98438 h 8.26563 v 4.78125 h -8.26563 v 4.3164 h 9.16407 v 4.78125 h -17.10157 z m 0,0"
         id="path9" /><path
         fill-rule="nonzero"
         fill="#231f20"
         fill-opacity="1"
         d="m 283.22656,345.05078 h 7.9375 v 16.96875 h 8.89453 v 5.67578 h -16.83203 z m 0,0"
         id="path11" /><path
         fill-rule="nonzero"
         fill="#231f20"
         fill-opacity="1"
         d="m 302.58594,345.05078 h 7.93359 v 16.96875 h 8.89453 v 5.67578 h -16.82812 z m 0,0"
         id="path13" /><path
         fill-rule="nonzero"
         fill="#231f20"
         fill-opacity="1"
         d="m 336.92578,344.94141 h -18.86719 v 1.67968 h 8.5 v 21.1875 h 1.98047 v -21.1875 h 8.5 v -1.67968 z m 0,0"
         id="path15" /><path
         fill-rule="nonzero"
         fill="#231f20"
         fill-opacity="1"
         d="m 352.10937,359.80078 c -1.07421,-1.61328 -1.92968,-2.77344 -2.92187,-3.36719 2.80078,-1.08203 4.23437,-2.93359 4.23437,-5.53906 0,-1.78906 -0.74218,-5.95312 -7.61328,-5.95312 h -5.92187 v 22.86328 h 1.98437 v -10.85938 h 2.9375 c 2.71094,0 3.54688,0.39844 6.21875,4.60156 l 3.95313,6.20704 2.14844,0.0508 h 0.20703 z M 341.87109,346.625 h 3.57422 c 3.72656,0 5.86328,1.56641 5.86328,4.30469 0,2.79687 -2.05859,4.33593 -5.80078,4.33593 h -3.63672 z m 0,0"
         id="path17" /><path
         fill-rule="nonzero"
         fill="#231f20"
         fill-opacity="1"
         d="m 361.69141,344.94141 h -1.8711 v 22.86718 h 1.98047 v -22.86718 z m 0,0"
         id="path19" /><path
         fill-rule="nonzero"
         fill="#231f20"
         fill-opacity="1"
         d="m 376.64062,344.64453 c -6.76953,0 -12.0664,5.14453 -12.0664,11.72656 0,6.58203 5.29687,11.73438 12.0664,11.73438 6.79688,0 12.12891,-5.15235 12.12891,-11.73438 0,-6.58203 -5.33203,-11.72656 -12.12891,-11.72656 m 0.0586,21.61328 c -5.61328,0 -10.00781,-4.34375 -10.00781,-9.88672 0,-5.54297 4.39453,-9.8789 10.00781,-9.8789 5.58594,0 9.95312,4.33593 9.95312,9.8789 0,5.54297 -4.36718,9.88672 -9.95312,9.88672"
         id="path21" /><path
         fill-rule="nonzero"
         fill="#231f20"
         fill-opacity="1"
         d="m 412.38281,344.94141 h -1.87109 v 19.60156 c -0.37891,-0.4375 -16.96875,-19.5625 -16.96875,-19.5625 l -1.57813,-0.0391 h -0.10937 v 22.86718 h 1.97656 v -19.60547 c 0.38281,0.4375 17.00781,19.5625 17.00781,19.5625 l 1.54297,0.043 h 0.10938 V 344.9414 Z m 0,0"
         id="path23" /><path
         fill-rule="nonzero"
         fill="#231f20"
         fill-opacity="1"
         d="m 246.54687,361.41406 c -2.6914,0 -4.8789,-2.1875 -4.8789,-4.8789 0,-2.69141 2.1875,-4.87891 4.8789,-4.87891 1.71485,0 3.22657,0.89453 4.09766,2.23828 h 7.89453 c -1.21094,-5.50781 -6.125,-9.64453 -11.99219,-9.64453 -6.77734,0 -12.28515,5.51172 -12.28515,12.28516 0,6.77343 5.50781,12.28515 12.28515,12.28515 6.14063,0 11.23047,-4.53906 12.12891,-10.43359 h -7.61719 c -0.73047,1.77344 -2.47656,3.02734 -4.51172,3.02734"
         id="path25" /><path
         fill-rule="nonzero"
         fill="#51b848"
         fill-opacity="1"
         d="m 246.27734,316.01953 c -6.64843,0 -12.03906,5.38672 -12.03906,12.03516 0,6.64843 5.39063,12.03906 12.03906,12.03906 6.64844,0 12.03516,-5.39063 12.03516,-12.03906 0,-6.64844 -5.38672,-12.03516 -12.03516,-12.03516 m 0,18.96875 c -3.82812,0 -6.93359,-3.10156 -6.93359,-6.93359 0,-3.82813 3.10547,-6.9336 6.93359,-6.9336 3.82813,0 6.9336,3.10547 6.9336,6.9336 0,3.83203 -3.10547,6.93359 -6.9336,6.93359"
         id="path27" /><path
         fill-rule="nonzero"
         fill="#51b848"
         fill-opacity="1"
         d="m 205.85156,356.25781 c 0,6.64453 5.39063,12.03516 12.03906,12.03516 6.64454,0 12.03516,-5.39063 12.03516,-12.03516 0,-6.64844 -5.39062,-12.03906 -12.03516,-12.03906 -6.64843,0 -12.03906,5.39062 -12.03906,12.03906"
         id="path29" /><path
         fill-rule="nonzero"
         fill="#51b848"
         fill-opacity="1"
         d="m 217.94922,316.05859 c -6.63281,0 -12.02735,5.39063 -12.02735,12.02344 0,6.63281 5.39454,12.02734 12.02735,12.02734 6.63281,0 12.02734,-5.39453 12.02734,-12.02734 0,-6.63281 -5.39453,-12.02344 -12.02734,-12.02344 m 0,22.19922 c -5.61328,0 -10.17578,-4.5625 -10.17578,-10.17578 0,-5.60937 4.5625,-10.17578 10.17578,-10.17578 5.60937,0 10.17578,4.56641 10.17578,10.17578 0,5.61328 -4.56641,10.17578 -10.17578,10.17578"
         id="path31" /></g></g></svg>
