<?xml version="1.0" encoding="UTF-8" standalone="no"?>
<svg
   id="_레이어_1"
   viewBox="0 0 144.44174 23.879044"
   version="1.1"
   sodipodi:docname="Hyundai_Heavy_Industries_logo_(english).svg"
   width="144.44174"
   height="23.879044"
   inkscape:version="1.2.2 (732a01da63, 2022-12-09)"
   xmlns:inkscape="http://www.inkscape.org/namespaces/inkscape"
   xmlns:sodipodi="http://sodipodi.sourceforge.net/DTD/sodipodi-0.dtd"
   xmlns="http://www.w3.org/2000/svg"
   xmlns:svg="http://www.w3.org/2000/svg">
  <sodipodi:namedview
     id="namedview65"
     pagecolor="#ffffff"
     bordercolor="#000000"
     borderopacity="0.25"
     inkscape:showpageshadow="2"
     inkscape:pageopacity="0.0"
     inkscape:pagecheckerboard="0"
     inkscape:deskcolor="#d1d1d1"
     showgrid="false"
     inkscape:zoom="4"
     inkscape:cx="14.5"
     inkscape:cy="12"
     inkscape:window-width="1920"
     inkscape:window-height="1009"
     inkscape:window-x="-8"
     inkscape:window-y="-8"
     inkscape:window-maximized="1"
     inkscape:current-layer="_레이어_1">
    <inkscape:page
       x="0"
       y="0"
       width="144.44174"
       height="23.879044"
       id="page19187" />
    <inkscape:page
       x="148.87859"
       y="26.849688"
       width="0"
       height="5.1538105"
       id="page19189" />
  </sodipodi:namedview>
  <defs
     id="defs4">
    <style
       id="style2">.cls-1{fill:#127e3c;}.cls-2{fill:#57b43f;}.cls-3{fill:#20a543;}.cls-4{fill:#133378;}</style>
  </defs>
  <g
     id="g12">
    <polygon
       class="cls-1"
       points="0,23.9 13.9,23.9 7,12 "
       id="polygon6" />
    <polygon
       class="cls-2"
       points="13.9,0 20.8,12 0,0 "
       id="polygon8" />
    <polygon
       class="cls-3"
       points="20.8,12 13.9,23.9 0,0 "
       id="polygon10" />
  </g>
  <g
     id="g62">
    <path
       id="path56"
       class="cls-4"
       d="m 135.69922,16.925781 c -0.0221,3.82e-4 -0.0443,0.0016 -0.0664,0.002 0.0221,-2e-6 0.0443,1e-6 0.0664,0 z" />
    <path
       class="cls-4"
       d="m 48.7,4.2 h -5.6 v 15.6 h 5.6 c 5.1,0 7.7,-2.7 7.7,-7.9 0,-5.2 -2.6,-7.7 -7.7,-7.7 z m -0.1,12.9 h -2 V 6.8 h 2 c 3,0 4.4,1.7 4.4,5 0,3.5 -1.4,5.3 -4.4,5.3 z"
       id="path14" />
    <polygon
       class="cls-4"
       points="30.3,10.2 30.3,4.2 26.8,4.2 26.8,19.7 30.3,19.7 30.3,13.2 36.7,13.2 36.7,19.7 40.1,19.7 40.1,4.2 36.7,4.2 36.7,13 35,10.2 "
       id="polygon16" />
  </g>
  <g
     transform="matrix(0.00815141,0,0,-0.0080954,57.96105,22.642063)"
     fill="#000000"
     stroke="none"
     id="g14995"
     style="fill:#133378;fill-opacity:1">
    <path
       d="m 459,2313 c 16,-40 57,-141 78,-190 4,-10 -42,-13 -211,-13 H 110 v -145 -145 h 80 79 l -20,-47 c -35,-82 -44,-177 -26,-267 23,-111 59,-180 136,-257 164,-164 399,-203 609,-101 76,36 181,137 220,210 67,126 78,279 29,401 l -25,61 h 74 74 v -135 -135 h 120 120 v -50 -50 h -120 -120 v -150 -150 h 120 120 V 1025 900 h 165 165 v 695 695 h -165 -165 v -220 -220 h -110 -110 v 130 130 H 1141 923 l -50,123 -50,122 -192,3 -191,2 z m 387,-548 c 25,-14 57,-45 72,-67 24,-37 27,-51 27,-124 0,-75 -3,-86 -30,-126 -39,-55 -119,-98 -186,-98 -69,0 -146,43 -183,103 -123,200 99,430 300,312 z"
       id="path14977"
       style="fill:#133378;fill-opacity:1" />
    <path
       d="m 9213,2306 c -140,-32 -272,-121 -346,-233 -57,-87 -78,-148 -85,-247 -6,-98 10,-171 55,-258 88,-169 269,-281 476,-295 224,-14 453,108 549,293 l 33,64 h 178 177 v -155 -155 h 180 180 v 495 495 h -180 -180 v -185 -185 h -173 -173 l -31,63 c -67,135 -178,233 -323,283 -93,33 -242,41 -337,20 z m 275,-289 c 163,-108 154,-340 -17,-429 -125,-66 -277,-13 -337,116 -42,91 -28,186 40,263 57,65 103,84 197,81 63,-3 82,-8 117,-31 z"
       id="path14979"
       style="fill:#133378;fill-opacity:1" />
    <path
       d="m 3200,1717 c 0,-658 13,-584 -110,-641 -126,-58 -307,-101 -492,-119 l -38,-3 v 493 493 h 240 240 v 145 145 H 2635 2230 V 1409 587 l 108,7 c 290,18 586,84 791,177 35,16 65,29 67,29 2,0 4,-99 4,-220 V 360 h 165 165 v 455 455 h 80 80 V 815 360 h 165 165 v 965 965 h -165 -165 v -345 -345 h -80 -80 v 345 345 h -165 -165 z"
       id="path14981"
       style="fill:#133378;fill-opacity:1" />
    <path
       d="m 4460,2160 v -130 h 303 l 302,-1 -35,-30 c -19,-17 -64,-47 -99,-67 -135,-76 -276,-111 -444,-112 -97,0 -98,0 -91,-22 4,-13 27,-78 51,-145 l 45,-123 h 52 c 136,0 311,34 451,89 70,27 208,109 286,170 l 26,20 58,-44 c 176,-131 431,-218 664,-227 l 74,-3 47,141 48,142 -137,4 c -112,4 -150,10 -218,32 -83,27 -205,100 -252,150 l -24,26 h 296 297 v 130 130 h -850 -850 z"
       id="path14983"
       style="fill:#133378;fill-opacity:1" />
    <path
       d="m 6750,2145 v -145 h 636 636 l -7,-112 c -9,-143 -28,-258 -52,-306 l -18,-37 -152,-3 -153,-3 v 141 140 h -175 -175 v -140 -140 h -365 -365 v -145 -145 h 1010 1010 v 145 145 h -144 -143 l 19,68 c 35,126 49,246 55,465 l 6,217 h -812 -811 z"
       id="path14985"
       style="fill:#133378;fill-opacity:1" />
    <path
       d="m 4290,1350 v -140 h 415 415 v -44 -44 l -72,-22 c -143,-43 -252,-114 -322,-210 -191,-259 3,-573 405,-655 113,-23 312,-16 419,15 324,94 487,348 372,582 -56,115 -206,227 -364,273 l -58,16 v 45 44 h 410 410 v 140 140 H 5305 4290 Z M 5430,871 c 100,-38 160,-108 160,-186 0,-145 -209,-246 -394,-191 -226,68 -228,311 -4,381 65,21 179,19 238,-4 z"
       id="path14987"
       style="fill:#133378;fill-opacity:1" />
    <path
       d="m 7391,1155 c -206,-37 -375,-145 -452,-287 -32,-59 -34,-69 -34,-158 0,-85 3,-101 29,-152 93,-184 340,-308 615,-308 290,0 534,123 628,318 22,47 27,71 27,137 1,70 -3,88 -31,148 -109,230 -451,362 -782,302 z m 305,-262 c 63,-21 140,-97 149,-147 11,-58 -3,-104 -46,-151 -60,-66 -124,-89 -239,-89 -78,0 -104,4 -145,22 -89,41 -145,109 -145,177 0,97 85,178 214,205 54,12 151,4 212,-17 z"
       id="path14989"
       style="fill:#133378;fill-opacity:1" />
    <path
       d="M 9050,735 V 300 h 780 780 v 435 435 h -170 -170 v -90 -90 h -445 -445 v 90 90 h -165 -165 z m 1200,-80 v -75 h -430 -430 v 75 75 h 430 430 z"
       id="path14991"
       style="fill:#133378;fill-opacity:1" />
    <path
       d="M 380,700 V 360 h 790 790 V 525 690 H 1350 740 v 175 175 H 560 380 Z"
       id="path14993"
       style="fill:#133378;fill-opacity:1" />
  </g>
</svg>
